HIERARCHY
ROOT Hips
{
  OFFSET 5.84602e-005 68.8428 3.50346
  CHANNELS 6 Xposition Yposition Zposition Zrotation Xrotation Yrotation
  JOINT Spine
  {
    OFFSET 0 8.597 -4.6522
    CHANNELS 3 Zrotation Xrotation Yrotation
    JOINT Spine1
    {
      OFFSET 0 7.8454 0.4098
      CHANNELS 3 Zrotation Xrotation Yrotation
      JOINT Spine2
      {
        OFFSET 0 9.7078 -2.1609
        CHANNELS 3 Zrotation Xrotation Yrotation
        JOINT Neck
        {
          OFFSET 0 21.8761 -0.4549
          CHANNELS 3 Zrotation Xrotation Yrotation
          JOINT Head
          {
            OFFSET 0 12.3537 3.3602
            CHANNELS 3 Zrotation Xrotation Yrotation
            End Site
            {
              OFFSET 0.0001 18.9506 0.5657
            }
          }
        }
        JOINT LeftShoulder
        {
          OFFSET 2.2086 21.1115 7.2329
          CHANNELS 3 Zrotation Xrotation Yrotation
          JOINT LeftArm
          {
            OFFSET 13.1193 3.0282 -4.8998
            CHANNELS 3 Zrotation Xrotation Yrotation
            JOINT LeftForeArm
            {
              OFFSET 27.4081 -0.0973053 -0.2375
              CHANNELS 3 Zrotation Xrotation Yrotation
              JOINT LeftHand
              {
                OFFSET 22.8641 0.0662994 -0.1369
                CHANNELS 3 Zrotation Xrotation Yrotation
                JOINT LeftHandIndex1
                {
                  OFFSET 8.8614 0.775009 2.4612
                  CHANNELS 3 Zrotation Xrotation Yrotation
                  JOINT LeftHandIndex2
                  {
                    OFFSET 3.3146 -0.808304 0.5841
                    CHANNELS 3 Zrotation Xrotation Yrotation
                    JOINT LeftHandIndex3
                    {
                      OFFSET 2.2628 -0.552002 0.3989
                      CHANNELS 3 Zrotation Xrotation Yrotation
                      End Site
                      {
                        OFFSET 1.6102 -0.4807 0.2612
                      }
                    }
                  }
                }
                JOINT LeftHandMiddle1
                {
                  OFFSET 8.9937 0.895004 0.2143
                  CHANNELS 3 Zrotation Xrotation Yrotation
                  JOINT LeftHandMiddle2
                  {
                    OFFSET 4.0984 0.0113983 -0.0242
                    CHANNELS 3 Zrotation Xrotation Yrotation
                    JOINT LeftHandMiddle3
                    {
                      OFFSET 2.2716 0.00689697 -0.0138001
                      CHANNELS 3 Zrotation Xrotation Yrotation
                      End Site
                      {
                        OFFSET 2.0404 -0.1441 0.0027
                      }
                    }
                  }
                }
                JOINT LeftHandRing1
                {
                  OFFSET 8.5234 0.597198 -2.0164
                  CHANNELS 3 Zrotation Xrotation Yrotation
                  JOINT LeftHandRing2
                  {
                    OFFSET 3.7188 -0.188293 -0.2328
                    CHANNELS 3 Zrotation Xrotation Yrotation
                    JOINT LeftHandRing3
                    {
                      OFFSET 2.1191 -0.106598 -0.1332
                      CHANNELS 3 Zrotation Xrotation Yrotation
                      End Site
                      {
                        OFFSET 1.8737 -0.2304 -0.0886
                      }
                    }
                  }
                }
                JOINT LeftHandPinky1
                {
                  OFFSET 7.9094 -0.601089 -3.4825
                  CHANNELS 3 Zrotation Xrotation Yrotation
                  JOINT LeftHandPinky2
                  {
                    OFFSET 2.2874 -0.477005 -0.6314
                    CHANNELS 3 Zrotation Xrotation Yrotation
                    JOINT LeftHandPinky3
                    {
                      OFFSET 1.6774 -0.349396 -0.4633
                      CHANNELS 3 Zrotation Xrotation Yrotation
                      End Site
                      {
                        OFFSET 1.4888 -0.4091 -0.3416
                      }
                    }
                  }
                }
                JOINT LeftHandThumb1
                {
                  OFFSET 1.833 -1.3875 1.3896
                  CHANNELS 3 Zrotation Xrotation Yrotation
                  JOINT LeftHandThumb2
                  {
                    OFFSET 3.4129 -1.121 2.5732
                    CHANNELS 3 Zrotation Xrotation Yrotation
                    JOINT LeftHandThumb3
                    {
                      OFFSET 2.2474 -0.804199 1.6192
                      CHANNELS 3 Zrotation Xrotation Yrotation
                      End Site
                      {
                        OFFSET 1.6527 -0.5689 1.1317
                      }
                    }
                  }
                }
              }
            }
          }
        }
        JOINT RightShoulder
        {
          OFFSET -2.2086 21.1115 7.2329
          CHANNELS 3 Zrotation Xrotation Yrotation
          JOINT RightArm
          {
            OFFSET -13.1216 3.0287 -4.9007
            CHANNELS 3 Zrotation Xrotation Yrotation
            JOINT RightForeArm
            {
              OFFSET -27.4081 -0.0973053 -0.2375
              CHANNELS 3 Zrotation Xrotation Yrotation
              JOINT RightHand
              {
                OFFSET -22.8641 0.0664063 -0.1369
                CHANNELS 3 Zrotation Xrotation Yrotation
                JOINT RightHandIndex1
                {
                  OFFSET -8.8614 0.774994 2.4612
                  CHANNELS 3 Zrotation Xrotation Yrotation
                  JOINT RightHandIndex2
                  {
                    OFFSET -3.3146 -0.808304 0.5841
                    CHANNELS 3 Zrotation Xrotation Yrotation
                    JOINT RightHandIndex3
                    {
                      OFFSET -2.2628 -0.552002 0.3989
                      CHANNELS 3 Zrotation Xrotation Yrotation
                      End Site
                      {
                        OFFSET -1.6102 -0.4807 0.2612
                      }
                    }
                  }
                }
                JOINT RightHandMiddle1
                {
                  OFFSET -8.9937 0.894989 0.2143
                  CHANNELS 3 Zrotation Xrotation Yrotation
                  JOINT RightHandMiddle2
                  {
                    OFFSET -4.0984 0.0113983 -0.0242
                    CHANNELS 3 Zrotation Xrotation Yrotation
                    JOINT RightHandMiddle3
                    {
                      OFFSET -2.2716 0.00691223 -0.0138001
                      CHANNELS 3 Zrotation Xrotation Yrotation
                      End Site
                      {
                        OFFSET -2.0404 -0.1441 0.0027
                      }
                    }
                  }
                }
                JOINT RightHandRing1
                {
                  OFFSET -8.5234 0.597198 -2.0164
                  CHANNELS 3 Zrotation Xrotation Yrotation
                  JOINT RightHandRing2
                  {
                    OFFSET -3.7188 -0.188309 -0.2328
                    CHANNELS 3 Zrotation Xrotation Yrotation
                    JOINT RightHandRing3
                    {
                      OFFSET -2.1191 -0.106598 -0.1332
                      CHANNELS 3 Zrotation Xrotation Yrotation
                      End Site
                      {
                        OFFSET -1.8737 -0.2304 -0.0886
                      }
                    }
                  }
                }
                JOINT RightHandPinky1
                {
                  OFFSET -7.9094 -0.601105 -3.4825
                  CHANNELS 3 Zrotation Xrotation Yrotation
                  JOINT RightHandPinky2
                  {
                    OFFSET -2.2874 -0.477005 -0.6314
                    CHANNELS 3 Zrotation Xrotation Yrotation
                    JOINT RightHandPinky3
                    {
                      OFFSET -1.6774 -0.349396 -0.4633
                      CHANNELS 3 Zrotation Xrotation Yrotation
                      End Site
                      {
                        OFFSET -1.4888 -0.4091 -0.3416
                      }
                    }
                  }
                }
                JOINT RightHandThumb1
                {
                  OFFSET -1.833 -1.38751 1.3896
                  CHANNELS 3 Zrotation Xrotation Yrotation
                  JOINT RightHandThumb2
                  {
                    OFFSET -3.41299 -1.12099 2.5732
                    CHANNELS 3 Zrotation Xrotation Yrotation
                    JOINT RightHandThumb3
                    {
                      OFFSET -2.24741 -0.804108 1.6192
                      CHANNELS 3 Zrotation Xrotation Yrotation
                      End Site
                      {
                        OFFSET -1.6527 -0.5689 1.1317
                      }
                    }
                  }
                }
              }
            }
          }
        }
      }
    }
  }
  JOINT RightUpLeg
  {
    OFFSET -9.1966 3.8861 -0.7581
    CHANNELS 3 Zrotation Xrotation Yrotation
    JOINT RightLeg
    {
      OFFSET -0.7359 -41.0265 0
      CHANNELS 3 Zrotation Xrotation Yrotation
      JOINT RightFoot
      {
        OFFSET 0 -40.2855 0
        CHANNELS 3 Zrotation Xrotation Yrotation
        JOINT RightToeBase
        {
          OFFSET 0 -5.6122 11.7359
          CHANNELS 3 Zrotation Xrotation Yrotation
          End Site
          {
            OFFSET 0 0 7.8731
          }
        }
      }
    }
  }
  JOINT LeftUpLeg
  {
    OFFSET 9.1965 3.8864 -0.7581
    CHANNELS 3 Zrotation Xrotation Yrotation
    JOINT LeftLeg
    {
      OFFSET 0.7359 -41.0268 0
      CHANNELS 3 Zrotation Xrotation Yrotation
      JOINT LeftFoot
      {
        OFFSET 0 -40.2855 0
        CHANNELS 3 Zrotation Xrotation Yrotation
        JOINT LeftToeBase
        {
          OFFSET 0 -5.6122 11.7359
          CHANNELS 3 Zrotation Xrotation Yrotation
          End Site
          {
            OFFSET 0 0 7.8731
          }
        }
      }
    }
  }
}
MOTION
Frames:	6
Frame Time:	0.0333333
5.84602e-005 68.8428 3.50346 0 0 -0 0 0 -0 0 0 -0 0 0 -0 0 0 -0 0 0 -0 0 0 -0 0 0 -0 0 0 -0 0 0 -0 0 0 -0 0 0 -0 0 0 -0 0 0 -0 -0.0146107 -8.87603e-005 -2.63497e-007 2.99804e-018 -2.42657e-020 -1.42182e-022 0 0 -0 -0.0187562 -0.001176 5.858e-005 5.06224e-018 3.88251e-019 1.21329e-020 0 0 -0 -0.012269 -0.00324817 0.000675346 -1.74678e-018 3.88251e-019 -0 0 0 -0 0 0 -0 0 0 -0 0 0 -0 0 0 -0 0 0 -0 0 0 -0 0 0 -0 0 0 -0 0 0 -0 0 0 -0 0.0149955 -9.10982e-005 2.64101e-007 -9.69331e-018 1.21329e-020 -4.7394e-023 0 0 -0 0.0189956 -0.00119102 -5.96516e-005 -5.41541e-019 0 2.42657e-020 0 0 -0 0.0122698 -0.00324857 -0.000673756 -2.00796e-019 0 -1.94126e-019 0 0 -0 0 0 -0 0 0 -0 3.39842 1.33031 -0.0637918 -5.65207e-008 0.834868 -0.000436188 -3.39935 -2.16518 -0.0642563 -8.89002e-024 -1.18485e-023 -1.48106e-024 -3.39844 1.35642 0.0640283 -3.18788e-007 0.782166 -0.000588827 3.39931 -2.13858 0.0634662 1.1399e-023 0 -0 
1.42106 68.1066 -12.5615 0 0 -0 -0.226655 7.17912 -0.37769 -0.410057 14.3595 -0.735261 -0.410058 14.3595 -0.73526 6.66982e-007 0.21501 6.28707e-007 -1.9159e-007 0.152123 -1.84509e-007 -9.96492 -1.55189 -21.9399 -54.9793 -5.30224 -12.2775 1.92731 6.47024 -43.286 12.5751 -5.11853 2.57359 -1.50534e-007 3.16631e-007 2.43259e-007 -1.50534e-007 3.16631e-007 2.43259e-007 -1.50534e-007 3.16631e-007 2.43259e-007 -1.50534e-007 3.16631e-007 2.43259e-007 -0.0146136 -9.06823e-005 2.41401e-006 -1.50535e-007 3.166e-007 2.433e-007 -1.50534e-007 3.16631e-007 2.43259e-007 -0.0187848 -0.00117982 6.09252e-005 -1.50533e-007 3.16592e-007 2.43313e-007 -1.50534e-007 3.16631e-007 2.43259e-007 -0.0122268 -0.00323633 0.000673006 -1.50526e-007 3.16606e-007 2.43297e-007 -1.50534e-007 3.16631e-007 2.43259e-007 -1.50534e-007 3.16631e-007 2.43259e-007 -1.50534e-007 3.16631e-007 2.43259e-007 9.96143 -1.55286 21.9363 54.9753 -5.3043 12.2742 -1.93037 6.46901 43.2823 -12.5788 -5.11806 -2.57723 3.55623e-008 -1.53605e-006 -2.85477e-006 -9.39936e-006 1.51494e-006 -1.3705e-006 -1.42735e-007 -3.27725e-007 2.32972e-007 3.55623e-008 -1.53605e-006 -2.85477e-006 0.0150001 -8.91994e-005 -1.53906e-006 -1.42737e-007 -3.27694e-007 2.33015e-007 3.55623e-008 -1.53605e-006 -2.85477e-006 0.0189935 -0.00118848 -6.40044e-005 -1.72855e-006 -1.65871e-006 -2.7452e-006 3.55623e-008 -1.53605e-006 -2.85477e-006 0.0122641 -0.00324852 -0.000680437 -1.42728e-007 -3.277e-007 2.33011e-007 3.55623e-008 -1.53605e-006 -2.85477e-006 -9.39936e-006 1.51494e-006 -1.3705e-006 -1.42735e-007 -3.27725e-007 2.32972e-007 -3.06843 4.70211 -3.08523 1.59385 25.545 -0.1271 8.95513 -15.8719 -12.9202 -1.99741e-007 -1.51821e-007 -1.72045e-006 6.56714 4.78761 7.39313 -1.8665 25.3385 0.306384 -11.2719 -15.1506 7.22299 -7.95139e-016 3.18055e-015 -3.18055e-015 
1.4209 68.0329 -13.1919 0 1.27052 -0 -0.225347 6.72984 -0.379378 -0.409744 13.461 -0.73963 -0.409744 13.461 -0.739629 9.3356e-006 0.2744 -7.8012e-006 3.6878e-007 0.193835 -3.73766e-007 -9.9016 -0.77567 -21.4568 -55.2258 -5.22817 -12.2749 1.92731 6.47022 -43.286 12.4945 -4.81771 2.60421 -2.25405e-007 4.75511e-007 3.64429e-007 -1.20216e-006 2.53606e-006 1.94362e-006 1.05934e-030 9.54166e-015 -6.36111e-015 -2.25405e-007 4.75511e-007 3.64429e-007 -0.0145818 -8.60992e-005 3.09633e-006 -0 -3.18055e-015 -0 -2.25405e-007 4.75511e-007 3.64429e-007 -0.0187848 -0.00117499 5.927e-005 1.59028e-015 -3.18055e-015 -0 -2.25405e-007 4.75511e-007 3.64429e-007 -0.0122343 -0.00324046 0.000678131 3.53113e-031 6.36111e-015 -3.18055e-015 -2.25405e-007 4.75511e-007 3.64429e-007 -1.20216e-006 2.53606e-006 1.94362e-006 1.05934e-030 9.54166e-015 -6.36111e-015 9.86653 -0.78563 21.4249 55.2149 -5.23015 12.2719 -1.93036 6.46901 43.2823 -12.4741 -4.81403 -2.59839 -7.12283e-008 -1.64063e-007 1.16301e-007 1.59028e-015 -3.18055e-015 -0 -1.42457e-007 -3.28126e-007 2.32603e-007 -7.12283e-008 -1.64063e-007 1.16301e-007 0.0149646 -9.4535e-005 -4.55201e-006 -1.42458e-007 -3.28095e-007 2.32646e-007 -7.12283e-008 -1.64063e-007 1.16301e-007 0.0189969 -0.00118994 -6.47124e-005 -1.42456e-007 -3.28087e-007 2.32659e-007 -7.12283e-008 -1.64063e-007 1.16301e-007 0.0122947 -0.00325679 -0.000682553 -1.42449e-007 -3.28101e-007 2.32642e-007 -7.12283e-008 -1.64063e-007 1.16301e-007 1.59028e-015 -3.18055e-015 -0 -1.42457e-007 -3.28126e-007 2.32603e-007 -3.02147 2.65317 -3.13874 1.43321 26.3733 -0.0822434 8.95035 -15.8832 -12.92 -4.16601e-007 -7.31227e-008 -5.43548e-008 6.55966 2.74279 7.47908 -1.7283 26.1629 0.272797 -11.2656 -15.1608 7.22281 7.61362e-007 -9.52734e-008 -9.1963e-007 
1.42076 67.9626 -13.8245 0 2.54358 -0 -0.223941 6.27457 -0.380933 -0.409332 12.5505 -0.743773 -0.409332 12.5505 -0.743773 -1.06967e-006 0.334175 9.61393e-007 1.31662e-007 0.235533 -1.16344e-007 -9.84477 0.00182188 -20.9741 -55.4723 -5.15408 -12.2719 1.92733 6.47024 -43.286 12.4138 -4.51693 2.63525 -1.50047e-007 3.17377e-007 2.42622e-007 -2.2507e-007 4.76066e-007 3.63933e-007 -2.2507e-007 4.76066e-007 3.63933e-007 -1.50047e-007 3.17377e-007 2.42622e-007 -0.0146104 -8.91293e-005 2.61677e-007 -2.25072e-007 4.76019e-007 3.63994e-007 -1.50047e-007 3.17377e-007 2.42622e-007 -0.018789 -0.00117966 6.09529e-005 -2.25069e-007 4.76006e-007 3.64014e-007 -1.50047e-007 3.17377e-007 2.42622e-007 -0.0122656 -0.00324969 0.00068002 -2.25059e-007 4.76028e-007 3.63991e-007 -1.50047e-007 3.17377e-007 2.42622e-007 -2.2507e-007 4.76066e-007 3.63933e-007 -2.2507e-007 4.76066e-007 3.63933e-007 9.77841 -0.0168013 20.9143 55.4545 -5.156 12.2693 -1.93033 6.46902 43.2824 -12.3692 -4.51004 -2.6201 3.96919e-007 -7.07924e-007 -3.44089e-006 -7.11095e-008 -1.64258e-007 1.16108e-007 -1.12831e-005 -4.78518e-007 -3.924e-006 3.96919e-007 -7.07924e-007 -3.44089e-006 0.0149623 -8.84213e-005 -4.90582e-006 -9.68302e-006 8.34499e-007 -9.12829e-007 3.96919e-007 -7.07924e-007 -3.44089e-006 0.0189883 -0.00119135 -6.48263e-005 -1.12815e-005 -4.79275e-007 -3.92381e-006 3.96919e-007 -7.07924e-007 -3.44089e-006 0.0122949 -0.00325366 -0.000679347 -1.12822e-005 -4.7928e-007 -3.92369e-006 3.96919e-007 -7.07924e-007 -3.44089e-006 -7.11095e-008 -1.64258e-007 1.16108e-007 -1.12831e-005 -4.78518e-007 -3.924e-006 -2.97366 0.595598 -3.1913 1.26647 27.1992 -0.0333395 8.94733 -15.8938 -12.9195 -1.46783e-006 -1.42206e-007 1.50314e-006 6.55267 0.687571 7.56559 -1.58459 26.9866 0.235861 -11.2609 -15.1702 7.2225 4.17071e-007 -7.26865e-008 5.1433e-008 
1.42062 67.8959 -14.459 0 3.81885 -0 -0.222433 5.8138 -0.382342 -0.408814 11.6293 -0.747681 -0.408814 11.6293 -0.74768 2.45018e-006 0.393663 -7.82338e-008 4.70447e-007 0.277252 2.79061e-007 -9.79445 0.780465 -20.4916 -55.7188 -5.08 -12.2687 1.92734 6.47022 -43.286 12.3329 -4.21613 2.66668 -7.49293e-008 1.58871e-007 1.21136e-007 7.49293e-008 -1.58871e-007 -1.21136e-007 -7.49293e-008 1.58871e-007 1.21136e-007 -7.49293e-008 1.58871e-007 1.21136e-007 -0.0145682 -8.73203e-005 -2.1898e-006 -7.49299e-008 1.58855e-007 1.21156e-007 -7.49293e-008 1.58871e-007 1.21136e-007 -0.018764 -0.00117251 5.63051e-005 -7.49289e-008 1.58851e-007 1.21163e-007 -7.49293e-008 1.58871e-007 1.21136e-007 -0.0122779 -0.00325145 0.000678953 -7.49255e-008 1.58858e-007 1.21155e-007 -7.49293e-008 1.58871e-007 1.21136e-007 7.49293e-008 -1.58871e-007 -1.21136e-007 -7.49293e-008 1.58871e-007 1.21136e-007 9.69706 0.753491 20.4044 55.694 -5.08187 12.2664 -1.93036 6.46901 43.2824 -12.2644 -4.20601 -2.64237 -2.13026e-007 -4.93344e-007 3.47723e-007 -5.68071e-007 -1.31558e-006 9.27262e-007 -2.84035e-007 -6.57792e-007 4.63631e-007 -2.13026e-007 -4.93344e-007 3.47723e-007 0.0149876 -8.94777e-005 1.31983e-006 -2.84038e-007 -6.57731e-007 4.63717e-007 -2.13026e-007 -4.93344e-007 3.47723e-007 0.0189529 -0.00118805 -5.97751e-005 -2.84034e-007 -6.57715e-007 4.63743e-007 -2.13026e-007 -4.93344e-007 3.47723e-007 0.0122672 -0.00324924 -0.000675009 -2.84021e-007 -6.57743e-007 4.6371e-007 -2.13026e-007 -4.93344e-007 3.47723e-007 -5.68071e-007 -1.31558e-006 9.27262e-007 -2.84035e-007 -6.57792e-007 4.63631e-007 -2.9246 -1.4732 -3.24277 1.09268 28.0264 0.0198153 8.94633 -15.9036 -12.9189 4.16685e-007 7.26081e-008 5.45739e-008 6.54598 -1.3771 7.65271 -1.43465 27.8097 0.195208 -11.2581 -15.1788 7.222 -4.17127e-007 7.22868e-008 -5.15869e-008 
1.4205 67.8327 -15.0953 0 5.09602 -0 -0.220826 5.34879 -0.383601 -0.408184 10.6989 -0.751335 -0.408184 10.6989 -0.751335 1.03692e-006 0.453366 -1.40492e-006 9.92048e-008 0.318972 2.203e-007 -9.75064 1.56014 -20.0094 -55.9653 -5.00594 -12.2651 1.92733 6.47023 -43.286 12.2519 -3.91537 2.69854 -3.18055e-015 3.18055e-015 3.18055e-015 5.98795e-007 -1.2724e-006 -9.6763e-007 1.49699e-007 -3.181e-007 -2.41908e-007 -3.18055e-015 3.18055e-015 3.18055e-015 -0.0145947 -8.93824e-005 3.8728e-010 1.497e-007 -3.18069e-007 -2.41948e-007 -3.18055e-015 3.18055e-015 3.18055e-015 -0.0187546 -0.00117491 6.19909e-005 1.49698e-007 -3.18061e-007 -2.41961e-007 -3.18055e-015 3.18055e-015 3.18055e-015 -0.0122745 -0.00325439 0.000681894 1.49691e-007 -3.18075e-007 -2.41946e-007 -3.18055e-015 3.18055e-015 3.18055e-015 5.98795e-007 -1.2724e-006 -9.6763e-007 1.49699e-007 -3.181e-007 -2.41908e-007 9.62249 1.52511 19.895 55.9336 -5.00773 12.2632 -1.93037 6.46899 43.2823 -12.1594 -3.90201 -2.66518 -1.68933e-006 -1.46287e-006 -2.91989e-006 -3.53113e-031 1.59028e-015 1.27222e-014 4.77083e-015 -7.95139e-015 3.18055e-015 -1.68933e-006 -1.46287e-006 -2.91989e-006 0.0150008 -9.21177e-005 -4.752e-006 3.53113e-031 6.36111e-015 -3.18055e-015 -1.68933e-006 -1.46287e-006 -2.91989e-006 0.0189721 -0.00118681 -5.95512e-005 6.36111e-015 -7.95139e-015 -3.18055e-015 -1.68933e-006 -1.46287e-006 -2.91989e-006 0.0122977 -0.00325623 -0.000681209 -1.61728e-006 -1.29889e-006 -3.03548e-006 -1.68933e-006 -1.46287e-006 -2.91989e-006 -3.53113e-031 1.59028e-015 1.27222e-014 4.77083e-015 -7.95139e-015 3.18055e-015 -2.87425 -3.5483 -3.29311 0.911637 28.8512 0.0777569 8.9475 -15.9127 -12.918 3.97569e-015 3.18055e-015 -6.36111e-015 6.53956 -3.44912 7.74045 -1.27808 28.6318 0.150352 -11.2574 -15.187 7.22129 1.04125e-006 -6.92969e-008 -1.5653e-006 
